<?xml version="1.0" encoding="iso-8859-1"?>
<!-- Generator: Adobe Illustrator 19.0.0, SVG Export Plug-In . SVG Version: 6.00 Build 0)  -->
<svg version="1.1" id="Layer_1" xmlns="http://www.w3.org/2000/svg" xmlns:xlink="http://www.w3.org/1999/xlink" x="0px" y="0px"
	 viewBox="0 0 389.37 389.37" style="enable-background:new 0 0 389.37 389.37;" xml:space="preserve">
<g>
	<g>
		<path d="M118.452,200.593c-26.273,0-48.837,18.854-53.782,44.818c-0.618,3.4-0.927,6.8-0.927,10.2
			c0,29.982,24.418,54.709,54.709,54.709c30.291,0,54.709-24.418,54.709-55.018C173.161,225.321,148.743,200.593,118.452,200.593z
			 M118.144,304.138c-26.582,0-48.527-21.636-48.527-48.527c0-3.091,0.309-6.182,0.927-8.964
			c4.327-22.873,24.418-39.564,47.909-39.564c26.891,0,48.527,21.637,48.219,48.528
			C166.671,282.193,145.035,304.138,118.144,304.138z"/>
	</g>
</g>
<g>
	<g>
		<path d="M167.289,278.485c-0.928-1.546-2.782-2.164-4.327-1.237c-7.109,3.709-15.145,5.872-23.182,5.872
			c-26.582,0-48.528-21.636-48.528-48.527c0-3.091,0.309-5.873,0.927-8.964c0.927-4.945,2.473-9.582,4.945-13.909
			c0.927-1.546,0.309-3.4-1.237-4.327c-1.546-0.927-3.4-0.309-4.327,1.237c-2.782,4.945-4.636,10.2-5.563,15.763
			c-0.618,3.4-0.927,6.8-0.927,10.2c0,29.982,24.418,54.709,54.709,54.709c9.272,0,18.236-2.473,26.273-6.49
			C167.598,281.884,168.217,280.03,167.289,278.485z"/>
	</g>
</g>
<g>
	<g>
		<path d="M250.743,53.775C187.071-10.207,90.634-17.934,36.234,36.466c-54.4,54.4-46.673,150.527,17.309,214.509
			c3.091,3.091,6.491,6.182,9.891,9.273c1.237,1.237,3.091,0.928,4.327-0.309s0.928-3.091-0.309-4.327
			c-3.4-2.782-6.491-5.873-9.582-8.964C-3.638,185.138-11.366,92.721,40.562,40.793C92.489-11.135,184.907-3.408,246.417,58.102
			c61.509,61.509,69.236,153.927,17.309,205.854c-28.437,28.746-70.473,40.182-114.982,31.836c-1.855-0.309-3.4,0.927-3.709,2.473
			c-0.309,1.854,0.927,3.4,2.473,3.709c9.891,1.854,19.782,2.782,29.364,2.782c35.236,0,67.691-12.673,91.182-36.472
			C322.453,213.884,314.725,117.757,250.743,53.775z"/>
	</g>
</g>
<g>
	<g>
		<path d="M384.27,353.284l-44.2-44.2c-3.4-3.4-8.036-5.254-12.673-5.254c-4.945,0-9.273,1.855-12.673,5.254l-5.254,5.254
			c-6.8,7.109-6.8,18.545,0,25.345l44.2,44.2c3.4,3.4,8.036,5.254,12.673,5.254c4.636,0,9.273-1.546,12.673-5.254l5.254-5.254
			C391.07,371.521,391.07,360.084,384.27,353.284z M379.635,374.302l-5.254,5.254c-4.327,4.636-11.746,4.636-16.382,0l-44.2-44.2
			c-4.636-4.327-4.636-11.746,0-16.382l5.254-5.254c2.163-2.163,5.254-3.4,8.345-3.4s6.182,1.236,8.037,3.4l44.2,44.2
			C384.271,362.248,384.271,369.666,379.635,374.302z"/>
	</g>
</g>
<g>
	<g>
		<path d="M310.089,321.138l-49.455-49.455c-1.237-1.237-3.091-1.237-4.327,0c-1.237,1.237-1.237,3.091,0,4.327l49.455,49.455
			c0.618,0.619,1.237,0.928,2.164,0.928c0.927,0,1.545-0.309,2.164-0.928C311.326,324.228,311.326,322.374,310.089,321.138z"/>
	</g>
</g>
<g>
	<g>
		<path d="M325.852,305.374l-49.455-49.455c-1.237-1.237-3.091-1.237-4.327,0c-1.237,1.237-1.237,3.091,0,4.327l49.455,49.455
			c0.618,0.619,1.237,0.928,2.164,0.928c0.618,0,1.546-0.309,2.164-0.928C327.089,308.465,327.089,306.611,325.852,305.374z"/>
	</g>
</g>
<g>
	<g>
		<path d="M239.307,62.738c-1.237-1.237-3.091-1.237-4.327,0L85.07,212.647c-1.237,1.237-1.237,3.091,0,4.327
			c0.618,0.619,1.237,0.928,2.164,0.928c0.619,0,1.546-0.309,2.164-0.927L239.307,67.065
			C240.544,65.829,240.544,63.975,239.307,62.738z"/>
	</g>
</g>
<g>
	<g>
		<path d="M78.271,223.465c-1.237-1.237-3.091-1.237-4.327,0l-10.2,10.2c-1.237,1.237-1.237,3.091,0,4.327
			c0.618,0.619,1.237,0.928,2.164,0.928c0.927,0,1.545-0.309,2.164-0.928l10.2-10.2C79.507,226.556,79.507,224.702,78.271,223.465z"
			/>
	</g>
</g>
<g>
	<g>
		<path d="M288.143,159.174c-1.237-1.237-3.091-1.237-4.327,0L158.943,284.047c-1.237,1.237-1.237,3.091,0,4.327
			c0.618,0.619,1.237,0.928,2.164,0.928c0.928,0,1.546-0.309,2.164-0.927l124.873-124.874
			C289.38,162.265,289.38,160.41,288.143,159.174z"/>
	</g>
</g>
<g>
	<g>
		<path d="M270.525,104.156c-1.237-1.237-3.091-1.237-4.327,0L153.07,217.283c-1.237,1.237-1.237,3.091,0,4.327
			c0.618,0.619,1.237,0.928,2.164,0.928c0.927,0,1.546-0.309,2.164-0.927l113.127-113.128
			C271.762,107.247,271.762,105.392,270.525,104.156z"/>
	</g>
</g>
<g>
	<g>
		<path d="M196.034,32.138c-1.237-1.237-3.091-1.237-4.327,0l-159.8,159.8c-1.237,1.237-1.237,3.091,0,4.327
			c0.618,0.619,1.237,0.928,2.164,0.928c0.927,0,1.855-0.309,2.164-0.927l159.8-159.8C197.271,35.229,197.271,33.375,196.034,32.138
			z"/>
	</g>
</g>
<g>
	<g>
		<path d="M138.853,16.684c-1.237-1.237-3.091-1.237-4.327,0L16.452,134.756c-1.237,1.237-1.237,3.091,0,4.327
			c0.618,0.619,1.237,0.928,2.164,0.928c0.618,0,1.545-0.309,2.164-0.927L138.853,21.011
			C140.089,19.775,140.089,17.921,138.853,16.684z"/>
	</g>
</g>
<g>
	<g>
		<path d="M289.071,163.811c-3.4-36.472-20.401-72.017-48.528-100.145c-28.128-28.128-63.673-45.128-100.146-48.528
			c-36.782-3.4-70.164,8.037-93.655,31.527c-48.837,48.837-41.109,135.691,17,193.8c0.927,0.927,1.855,1.854,2.782,2.782
			c1.237,1.237,3.091,1.237,4.327,0s1.237-3.091,0-4.327c-0.618-0.618-1.546-1.545-2.473-2.473
			c-55.637-55.946-63.364-138.782-17-185.146c22.255-22.255,53.782-32.764,88.709-29.673c34.927,3.091,69.236,19.782,96.127,46.673
			c26.891,27.2,43.582,61.2,46.673,96.436c3.091,34.927-7.418,66.455-29.673,88.709c-23.182,22.873-55.636,33.382-91.8,29.364
			c-1.545,0-3.091,1.236-3.4,2.782c0,1.545,1.236,3.091,2.782,3.4c5.254,0.619,10.509,0.928,15.763,0.928
			c31.837,0,60.273-11.128,80.983-32.455C281.035,233.665,292.471,200.593,289.071,163.811z"/>
	</g>
</g>
<g>
	<g>
		<path d="M257.543,253.447L51.071,46.975c-1.237-1.237-3.091-1.237-4.327,0s-1.237,3.091,0,4.327l206.472,206.472
			c0.618,0.619,1.237,0.928,2.164,0.928c0.928,0,1.855-0.309,2.164-0.928C258.78,256.538,258.78,254.684,257.543,253.447z"/>
	</g>
</g>
<g>
	<g>
		<path d="M141.634,205.229L25.725,89.32c-1.237-1.237-3.091-1.237-4.327,0c-1.237,1.237-1.237,3.091,0,4.327l115.909,115.909
			c0.618,0.619,1.237,0.928,2.164,0.928c0.928,0,1.855-0.309,2.164-0.927C142.87,208.32,142.87,206.466,141.634,205.229z"/>
	</g>
</g>
<g>
	<g>
		<path d="M215.507,279.101l-46.982-46.982c-1.237-1.237-3.091-1.237-4.327,0c-1.237,1.237-1.237,3.091,0,4.327l46.982,46.982
			c0.618,0.619,1.237,0.928,2.164,0.928c0.928,0,1.546-0.309,2.164-0.928C216.743,282.192,216.743,280.338,215.507,279.101z"/>
	</g>
</g>
<g>
	<g>
		<path d="M87.234,212.956l-64.291-64.291c-1.237-1.237-3.091-1.237-4.327,0c-1.237,1.237-1.237,3.091,0,4.327l64.291,64.291
			c0.618,0.619,1.237,0.928,2.164,0.928c0.927,0,1.545-0.309,2.164-0.928C88.471,216.047,88.471,214.192,87.234,212.956z"/>
	</g>
</g>
<g>
	<g>
		<path d="M283.507,211.102L94.034,21.629c-1.237-1.237-3.091-1.237-4.327,0c-1.237,1.237-1.237,3.091,0,4.327l189.473,189.472
			c0.618,0.619,1.237,0.928,2.164,0.928c0.618,0,1.546-0.309,2.164-0.928C284.744,214.192,284.744,212.338,283.507,211.102z"/>
	</g>
</g>
<g>
	<g>
		<path d="M286.289,151.447L153.379,18.538c-1.237-1.237-3.091-1.237-4.327,0s-1.237,3.091,0,4.327l132.909,132.909
			c0.618,0.619,1.237,0.928,2.164,0.928c0.618,0,1.546-0.309,2.164-0.927C287.525,154.538,287.525,152.684,286.289,151.447z"/>
	</g>
</g>
<g>
</g>
<g>
</g>
<g>
</g>
<g>
</g>
<g>
</g>
<g>
</g>
<g>
</g>
<g>
</g>
<g>
</g>
<g>
</g>
<g>
</g>
<g>
</g>
<g>
</g>
<g>
</g>
<g>
</g>
</svg>
