<?xml version="1.0" encoding="iso-8859-1"?>
<!-- Generator: Adobe Illustrator 19.0.0, SVG Export Plug-In . SVG Version: 6.00 Build 0)  -->
<svg version="1.1" id="Layer_1" xmlns="http://www.w3.org/2000/svg" xmlns:xlink="http://www.w3.org/1999/xlink" x="0px" y="0px"
	 viewBox="0 0 299.132 299.132" style="enable-background:new 0 0 299.132 299.132;" xml:space="preserve">
<g>
	<g>
		<g>
			<path d="M2.421,176.122c2.016,1.323,19.908,12.978,30.996,12.978c6.867,0,12.348-3.654,17.262-6.867
				c4.095-2.709,8.001-5.292,12.033-5.292c4.032,0,7.875,2.583,12.033,5.292c4.851,3.213,10.395,6.867,17.262,6.867
				c6.93,0,12.222-3.654,16.884-6.93c4.032-2.835,7.56-5.229,11.529-5.229c4.032,0,7.875,2.583,12.033,5.292
				c4.851,3.213,10.395,6.867,17.262,6.867s12.348-3.654,17.262-6.867c4.095-2.709,8.001-5.292,12.033-5.292
				c3.969,0,7.434,2.457,11.529,5.229c4.662,3.276,10.017,6.93,16.884,6.93s12.348-3.654,17.262-6.867
				c4.095-2.709,8.001-5.292,12.033-5.292c4.032,0,7.875,2.583,12.033,5.292c4.851,3.213,10.395,6.867,17.262,6.867
				c11.151,0,29.043-11.655,30.996-12.978c2.205-1.449,2.772-4.347,1.323-6.552c-1.449-2.205-4.347-2.772-6.552-1.323
				c-6.678,4.41-19.53,11.403-25.83,11.403c-4.032,0-7.875-2.583-12.033-5.292c-4.851-3.213-10.395-6.867-17.262-6.867
				s-12.348,3.654-17.262,6.867c-4.095,2.709-8.001,5.292-12.033,5.292c-3.969,0-7.434-2.457-11.529-5.229
				c-4.662-3.276-10.017-6.93-16.884-6.93s-12.348,3.654-17.262,6.867c-4.095,2.709-8.001,5.292-12.033,5.292
				s-7.875-2.583-12.033-5.292c-4.851-3.213-10.395-6.867-17.262-6.867c-6.93,0-12.222,3.654-16.884,6.93
				c-4.032,2.835-7.56,5.229-11.529,5.229c-4.032,0-7.875-2.583-12.033-5.292c-0.378-0.252-0.693-0.441-1.071-0.693l95.634-54.81
				c1.134-0.63,1.953-1.701,2.268-2.961s0.063-2.583-0.63-3.654l-22.554-34.839c-1.008-1.575-2.898-2.394-4.725-2.079L81.99,86.662
				c-2.583,0.441-4.284,2.898-3.843,5.418c0.441,2.583,2.898,4.284,5.418,3.843l63.819-10.773l18.144,28.035l-95.949,54.936
				c-0.189,0.126-0.378,0.252-0.567,0.378c-1.953-0.63-4.032-1.008-6.3-1.008c-6.867,0-12.348,3.654-17.262,6.867
				c-4.095,2.709-8.001,5.292-12.033,5.292c-6.237,0-19.152-6.993-25.83-11.403c-2.205-1.449-5.103-0.819-6.552,1.323
				C-0.351,171.712,0.216,174.673,2.421,176.122z"/>
			<path d="M291.591,203.023c-6.678,4.41-19.53,11.403-25.83,11.403c-4.032,0-7.875-2.583-12.033-5.292
				c-4.851-3.213-10.395-6.867-17.262-6.867s-12.348,3.654-17.262,6.867c-4.095,2.709-8.001,5.292-12.033,5.292
				c-3.969,0-7.434-2.457-11.529-5.229c-4.662-3.276-10.017-6.93-16.884-6.93s-12.348,3.654-17.262,6.867
				c-4.095,2.709-8.001,5.292-12.033,5.292s-7.875-2.583-12.033-5.292c-4.851-3.213-10.395-6.867-17.262-6.867
				c-6.93,0-12.222,3.654-16.884,6.93c-4.032,2.835-7.56,5.229-11.529,5.229c-4.032,0-7.875-2.583-12.033-5.292
				c-4.851-3.213-10.395-6.867-17.262-6.867s-12.348,3.654-17.262,6.867c-4.095,2.709-8.001,5.292-12.033,5.292
				c-6.237,0-19.152-6.993-25.83-11.403c-2.205-1.449-5.103-0.819-6.552,1.323c-1.449,2.205-0.819,5.103,1.323,6.552
				c2.016,1.323,19.908,12.978,30.996,12.978c6.867,0,12.348-3.654,17.262-6.867c4.095-2.709,8.001-5.292,12.033-5.292
				c4.032,0,7.875,2.583,12.033,5.292c4.851,3.213,10.395,6.867,17.262,6.867c6.93,0,12.222-3.654,16.884-6.93
				c4.032-2.835,7.56-5.229,11.529-5.229c4.032,0,7.875,2.583,12.033,5.292c4.851,3.213,10.395,6.867,17.262,6.867
				s12.348-3.654,17.262-6.867c4.095-2.709,8.001-5.292,12.033-5.292c3.969,0,7.434,2.457,11.529,5.229
				c4.662,3.276,10.017,6.93,16.884,6.93c6.867,0,12.348-3.654,17.262-6.867c4.095-2.709,8.001-5.292,12.033-5.292
				c4.032,0,7.875,2.583,12.033,5.292c4.851,3.213,10.395,6.867,17.262,6.867c11.151,0,29.043-11.655,30.996-12.978
				c2.205-1.449,2.772-4.347,1.323-6.552C296.694,202.204,293.733,201.574,291.591,203.023z"/>
			<path d="M222.291,141.094c8.505,0,16.506-3.402,22.617-9.576c6.111-6.174,9.45-14.301,9.45-22.869s-3.402-16.695-9.45-22.869
				c-6.111-6.174-14.112-9.576-22.617-9.576c-18.144,0-32.886,14.553-32.886,32.445S204.147,141.094,222.291,141.094z
				 M222.291,85.654c12.222,0,22.554,10.521,22.554,22.995s-10.332,22.995-22.554,22.995c-12.915,0-23.436-10.332-23.436-22.995
				S209.376,85.654,222.291,85.654z"/>
		</g>
	</g>
</g>
<g>
</g>
<g>
</g>
<g>
</g>
<g>
</g>
<g>
</g>
<g>
</g>
<g>
</g>
<g>
</g>
<g>
</g>
<g>
</g>
<g>
</g>
<g>
</g>
<g>
</g>
<g>
</g>
<g>
</g>
</svg>
