<?xml version="1.0" encoding="utf-8"?>
<!-- Generator: Adobe Illustrator 16.0.0, SVG Export Plug-In . SVG Version: 6.00 Build 0)  -->
<!DOCTYPE svg PUBLIC "-//W3C//DTD SVG 1.1//EN" "http://www.w3.org/Graphics/SVG/1.1/DTD/svg11.dtd">
<svg id="Lager_1" data-name="Lager 1" xmlns="http://www.w3.org/2000/svg" viewBox="0 0 419.97 155.42"><title>in_croatia_logo</title><path d="M151.32,161.74h-2.94V148.58h-8.27v-2.23h19.48v2.23h-8.27Z" transform="translate(-5.7 -6.31)" style="fill:#004388"/><path d="M170,157.07v4.67h-3V146.35h13c2.42,0,4.2.47,5.32,1.59a6,6,0,0,1,0,7.55,5.67,5.67,0,0,1-3.22,1.44,12.39,12.39,0,0,1,2.31,1.75l3.39,3.06H184l-4.26-3.86a2.5,2.5,0,0,0-2.12-.81Zm9.77-2.22c1.61,0,2.58-.21,3.18-.78a4.26,4.26,0,0,0,0-4.71c-.6-.57-1.57-.78-3.18-.78H170v6.27Z" transform="translate(-5.7 -6.31)" style="fill:#004388"/><path d="M212,158.77H199l-2,3h-3.31l10.45-15.39h2.63l10.51,15.39H214Zm-11.49-2.25h10l-5-7.43Z" transform="translate(-5.7 -6.31)" style="fill:#004388"/><path d="M230,159l8.34-12.63h3.25l-10.32,15.39h-2.63L218.3,146.35h3.35Z" transform="translate(-5.7 -6.31)" style="fill:#004388"/><path d="M266.23,161.74H248.48V146.35h17.67v2.23H251.42v4.21h10V155h-10v4.53h14.81Z" transform="translate(-5.7 -6.31)" style="fill:#004388"/><path d="M277,159.51h14.25v2.23h-17.2V146.35H277Z" transform="translate(-5.7 -6.31)" style="fill:#004388"/><path d="M301.85,81.83a2,2,0,0,0,2.8,0,5.12,5.12,0,0,0,1.59-2.24,4.49,4.49,0,0,1,1.86-2.25,13.81,13.81,0,0,1,7.52-2.59,30.45,30.45,0,0,1,8,.63,1.3,1.3,0,0,0,1.2-.35,2.18,2.18,0,0,0,.66-1.19c.09-.85-.2-1.36-.86-1.55a7,7,0,0,0-1.8-.28,45,45,0,0,0-9.44-.42c-1.15.19-2.37.45-3.65.77a18.56,18.56,0,0,0-3.66,1.34A12,12,0,0,0,303,75.87,8.16,8.16,0,0,0,300.92,79,2.38,2.38,0,0,0,301.85,81.83Z" transform="translate(-5.7 -6.31)" style="fill:#c00d0d"/><path d="M118.88,92.67a12,12,0,0,0,5,.49,38.6,38.6,0,0,0,9.58-2.59Q138,88.67,142.61,87a97.89,97.89,0,0,0,12.63-5.68q6.12-3.3,12.23-6.67c.11-.06.16-.18.25-.26a11,11,0,0,0,1.68-.86c.58-.37,1.22-.75,1.93-1.12,1.24-.66,2.48-1.24,3.72-1.76s2.48-1,3.73-1.61l2.26-.84c1-.37,2-.7,2.92-1a16.5,16.5,0,0,1-.4,2.18c-.18.7-.35,1.38-.53,2a8.61,8.61,0,0,0-.93,1.76,25.72,25.72,0,0,1-1.33,2.59,4.28,4.28,0,0,0-2,2.25,2.74,2.74,0,0,0,.06,1.82,2.29,2.29,0,0,0,1,1.06,2.39,2.39,0,0,0,2.79-.36,31.35,31.35,0,0,1,7.18-5.82q4.13-2.44,8-4.42c2-1.12,4.28-2.19,6.71-3.23a26.93,26.93,0,0,1,7.25-2,11.44,11.44,0,0,1-2.39,4.21,30.63,30.63,0,0,1-2.66,3c-.53.56-1.13,1.17-1.8,1.82s-1.28,1.33-1.86,2a18.3,18.3,0,0,0-1.53,2.18,4.89,4.89,0,0,0-.66,2.52c0,1.88.57,3,1.73,3.44a7.28,7.28,0,0,0,4,.14,23.12,23.12,0,0,0,4.66-1.54c1.55-.7,2.68-1.24,3.39-1.61,1.24-.66,2.43-1.27,3.59-1.83s2.34-1.21,3.59-2l2.79-1.34c.88-.42,1.73-.86,2.53-1.33a2.24,2.24,0,0,0,1.06-2c0-.85-.4-1.26-1.2-1.26a3.52,3.52,0,0,0-1.39.41c-.58.29-1.18.59-1.8.92s-1.22.68-1.79,1-1.05.66-1.4.84l-5.45,2.53-1.93.84c-.84.37-1.73.72-2.66,1a19.34,19.34,0,0,1-2.79.77,4.79,4.79,0,0,1-2.33,0,4.71,4.71,0,0,1,.73-1.61c.4-.61.84-1.21,1.33-1.83s1-1.14,1.4-1.61a8.12,8.12,0,0,0,.93-1.12c1-1.22,1.93-2.34,2.86-3.37a23,23,0,0,0,2.59-3.51,5.94,5.94,0,0,0,1.06-3.15,3.46,3.46,0,0,0-2.79-3.65,6.27,6.27,0,0,0-3.06.07,41.85,41.85,0,0,0-9.17,4.07q-4.51,2.67-8.78,5L189.15,71a32.77,32.77,0,0,0-3.46,2l1.6-3.93a11.5,11.5,0,0,1,1.26-2.46,2.89,2.89,0,0,0,.33-2.73q-.8-1.83-4-1.12a32.39,32.39,0,0,0-7,2.52c-2.52,1.22-5,2.5-7.38,3.86l-4.7,2.68-1,.48-6.65,3.92c-2.13,1.32-4.3,2.53-6.52,3.65a62.32,62.32,0,0,1-6.78,3q-1.06.28-4.65,1.47t-7.71,2.25q-4.12,1.05-7.72,1.68c-2.39.42-3.9.35-4.52-.21a2.85,2.85,0,0,1-.53-2.52,19,19,0,0,1,1-3.65c.48-1.31,1-2.53,1.53-3.65l1.19-2.53a55.92,55.92,0,0,1,3.46-6.87c1.33-2.25,2.61-4.49,3.86-6.74l16.88-27.92q2.13-3.23,4.06-6.31t4.05-6.17c1.07-.47,2.15-.94,3.26-1.41a13.88,13.88,0,0,0,3.13-1.82,19.79,19.79,0,0,0,2.72-2.18,16.12,16.12,0,0,0,3-3.51,7.34,7.34,0,0,0,1.27-3.57c0-1.12-.78-2-2.46-2.53a4.41,4.41,0,0,0-3.79.35,14.48,14.48,0,0,0-3.59,2.81,30.54,30.54,0,0,0-3.06,3.79c-.93,1.35-1.71,2.45-2.33,3.29a15.2,15.2,0,0,0-.86,1.35c-.22.38-.47,1.35-.73,1.35h-.13c-2.75,2.93-5.55,1.55-8.38,1.74a51.46,51.46,0,0,1-8.51-.18,2.31,2.31,0,0,0-1.53.47,2.73,2.73,0,0,0-.87,1.25,2.92,2.92,0,0,0-.06,1.61,2.33,2.33,0,0,0,1,1.4,2.7,2.7,0,0,0,1.79.56,13.54,13.54,0,0,0,2.33-.21c.79-.14,1.57-.31,2.32-.5s1.4-.32,1.93-.42c1.24-.18,2.44-.39,3.59-.63s2.35-.49,3.59-.77q-4.26,7.16-8.18,14.52T132.9,52.89q-3.45,5.76-7,11.44T119.08,76c-.54.94-1.07,1.95-1.6,3a31.68,31.68,0,0,0-1.4,3.3,15.68,15.68,0,0,0-.79,3.37,7.73,7.73,0,0,0,.33,3.36A4.82,4.82,0,0,0,118.88,92.67Zm44.47-80.33A11.33,11.33,0,0,1,162,14.1a14.86,14.86,0,0,1-1.8,1.61A11.46,11.46,0,0,1,163.35,12.34Z" transform="translate(-5.7 -6.31)" style="fill:#c00d0d"/><path d="M424.42,36.85c-1.7-6.12-9.79-8.86-14.6-4.93-6.08,5-9.36,10.88-12.36,18.3,1-2.54.55-12.18-.35-16.61-2.13-10.47-7.7-17.61-18.35-17-9.62.51-14.16,11.05-14.5,20.19C363.52,56.3,382.39,70,383.84,88.29c.14,1.74,2.72,1.75,2.58,0-.75-9.42-6.21-16.89-10.6-24.92-4.66-8.51-8.05-14.27-8.61-24.33,0-7.4,4.18-13,6.9-15C385.57,15.69,395,23.11,395,38.88c.44,5.37.68,10.76,1,16.14a1.29,1.29,0,0,0,2.53.36,53.6,53.6,0,0,1,9.58-18.65c2.23-2.73,7-3,9.47-1.84s5.06,5.33,5.55,8.81a44.33,44.33,0,0,1-1.68,14.11c-2.83,12.6-10.33,23.48-18.69,32.6-8.51,9.28-19.91,18.28-31.48,23.77-3.29,1.73-7.78,3.74-9.73,4.62a55.8,55.8,0,0,1-5.92,2.32,50.32,50.32,0,0,1-5.78,1.54,13.56,13.56,0,0,1-4.65.28,1.24,1.24,0,0,1-.93-.63c-.18-.32-.09-.82.26-1.47a5.06,5.06,0,0,1,1-1.76l1.26-1.33a3.86,3.86,0,0,0,.93-1.68,2.43,2.43,0,0,0-.86-2.88,1.7,1.7,0,0,0-2.59.35,29.11,29.11,0,0,1-6.25,5.33,19.67,19.67,0,0,1-2.13,1.34c-1.06.61-2.22,1.19-3.46,1.75a20,20,0,0,1-3.65,1.26,2.88,2.88,0,0,1-2.6-.28q-.93-.84,0-2.73a22.67,22.67,0,0,1,2.53-3.93q1.59-2,3.26-3.79c1.1-1.17,1.88-1.94,2.32-2.31,1.07-.75,2-1.38,2.86-1.9a13.5,13.5,0,0,1,3.13-1.33l6-.7a4,4,0,0,0,2.46-1.55c.67-.84.47-1.77-.6-2.8a5.14,5.14,0,0,0-3.39-.42,37,37,0,0,0-5,1c-1.78.47-3.46,1-5.06,1.54s-2.7,1-3.32,1.27q-1.72.69-4.32,1.82t-5.39,2.38c-1.86.85-3.61,1.71-5.25,2.6L312.92,114a4,4,0,0,0-.43.08,21.53,21.53,0,0,0-3.79,1.55q-2.06,1-3.92,2.17a25.1,25.1,0,0,1-2.53,1.41c-1.5.56-3.17,1.12-5,1.68a11.92,11.92,0,0,1-5,.56,5,5,0,0,1-.47-4.35,32.63,32.63,0,0,1,1.54-4.49,9.48,9.48,0,0,1,1.26-2.53,7.2,7.2,0,0,0,1.13-2.52c.26-1.5-.05-2.36-.93-2.6a6.8,6.8,0,0,0-3.19.07,21.64,21.64,0,0,0-3.79,1.27c-1.29.56-2.11.93-2.46,1.12l-13.3,6.73c-.09.05-.13.1-.21.15a8,8,0,0,0-1.12.27q-3.06,1.41-6.11,2.53l-6.12,2.25c-1.6.46-3.48,1-5.65,1.75a10.84,10.84,0,0,1-6.05.35c-.27,0-.31-.49-.13-1.47s.42-2.06.73-3.23.64-2.32,1-3.44a11.33,11.33,0,0,1,.79-2.1c.45-1,.89-2,1.33-3a20.85,20.85,0,0,1,1.6-2.87c1.24-1,2.43-2.06,3.59-3.09s2.26-2.06,3.32-3.09l1.86-.42q6.39-.84,13-2.1a81.38,81.38,0,0,0,12.77-3.51,2.5,2.5,0,0,0,1.46-1.62,2.45,2.45,0,0,0-.4-2.31,1.72,1.72,0,0,0-1.79-.91,9.27,9.27,0,0,0-1.93.63l-13.17,4.21L263,95q2.27-2.52,4.45-5.19c1.47-1.78,2.86-3.6,4.19-5.47,1.07-1.41,2.35-3,3.86-4.7a12.74,12.74,0,0,0,2.92-5.4,2.83,2.83,0,0,0-.26-2.39,2.18,2.18,0,0,0-2-1.12,5.54,5.54,0,0,0-2.32.84c-.76.47-1.49.94-2.2,1.4a49.87,49.87,0,0,0-9.77,11q-4.32,6.52-8,12.56c-1.6.18-3.19.3-4.79.35s-3.19,0-4.79-.07a1.48,1.48,0,0,0-1.53,1.26,1.63,1.63,0,0,0,.74,2,5.66,5.66,0,0,0,3.85.42c1.6-.28,3.06-.46,4.39-.56l-1.86,3.37a91.67,91.67,0,0,1-8.45,5.89,96.88,96.88,0,0,1-9,4.91c-.08.05-.12.11-.19.16a7.55,7.55,0,0,0-.81.26,11,11,0,0,0-1.92,1.06,5.36,5.36,0,0,1-1.47.77q-2.13,1.13-5.05,2.45a55.8,55.8,0,0,1-5.92,2.32,50.32,50.32,0,0,1-5.78,1.54,13.56,13.56,0,0,1-4.65.28,1.24,1.24,0,0,1-.93-.63c-.18-.32-.09-.82.26-1.47a5.06,5.06,0,0,1,1-1.76l1.26-1.33a4,4,0,0,0,.93-1.68,2.43,2.43,0,0,0-.86-2.88,1.7,1.7,0,0,0-2.59.35,29.36,29.36,0,0,1-6.25,5.33,19.67,19.67,0,0,1-2.13,1.34c-1.07.61-2.22,1.19-3.46,1.75a19.88,19.88,0,0,1-3.66,1.26,2.86,2.86,0,0,1-2.59-.28q-.93-.84,0-2.73a22.09,22.09,0,0,1,2.53-3.93q1.59-2,3.26-3.79c1.1-1.17,1.88-1.94,2.32-2.31,1.07-.75,2-1.38,2.86-1.9a13.32,13.32,0,0,1,3.13-1.33l6-.7a4.06,4.06,0,0,0,2.46-1.55c.66-.84.46-1.77-.6-2.8a5.14,5.14,0,0,0-3.39-.42,37.39,37.39,0,0,0-5,1q-2.65.71-5,1.54c-1.59.56-2.7,1-3.32,1.27q-1.74.69-4.32,1.82t-5.39,2.38c-1.86.85-3.61,1.71-5.25,2.6l-4,2.16a11.15,11.15,0,0,0-1.82.65c-.93.42-1.84.86-2.73,1.33a8.41,8.41,0,0,1-2,.84,19.6,19.6,0,0,1-4.79.84,7.4,7.4,0,0,1-4.65-1.26,6.52,6.52,0,0,1-1.6-1.4,15.51,15.51,0,0,0,2-4.91,4.61,4.61,0,0,0-1.2-4.35,2.4,2.4,0,0,0-1.86-.56,2.15,2.15,0,0,0-.8-2.25,4.63,4.63,0,0,0-3.86-.56,16.13,16.13,0,0,0-3.85,1.54c-1.78.56-3.61,1.13-5.52,1.69a50.67,50.67,0,0,0-5.52,2l-13.3,6.07c-.06,0-.13,0-.19,0a6.11,6.11,0,0,0-1.53.71,8,8,0,0,1-1.2.63c-1.15.56-2.28,1.14-3.39,1.75s-2.19,1.15-3.26,1.61q-4.78,2-7.64,2.81c-1.91.56-3.08.56-3.53,0a3.23,3.23,0,0,1-1-2.67,12.59,12.59,0,0,1,.66-3.5,28.3,28.3,0,0,1,1.46-3.58q.87-1.75,1.53-2.88a3.49,3.49,0,0,0,.54-3.36q-.68-1.41-3.06-.57a39,39,0,0,1-5.45,2.88,11.61,11.61,0,0,1-5.86,1,4.2,4.2,0,0,1-2.25-.56,9.2,9.2,0,0,0,2.79-2.8,3.57,3.57,0,0,0,.53-3.23,2.74,2.74,0,0,0-2.39-2,5.17,5.17,0,0,0-4.59,2.25A7,7,0,0,0,83,107.51q-3.19,2-5.92,3.51c-1.82,1-18.28,10.1-18.28,10.1Q55.34,123,52,124.7c-2.26,1.17-4.54,2.26-6.85,3.29-2.12.94-4.43,1.92-6.91,3a62.77,62.77,0,0,1-7.58,2.6A40.68,40.68,0,0,1,23,134.87a19.54,19.54,0,0,1-7.38-.84,7.22,7.22,0,0,1-4.86-4.21,16.47,16.47,0,0,1-1.13-6.88,34.74,34.74,0,0,1,1.13-7.57,49,49,0,0,1,2.06-6.32,85.63,85.63,0,0,1,6.59-14.38,125.24,125.24,0,0,1,8.7-13.12q2.13-2.8,4.73-5.82a64.24,64.24,0,0,1,5.51-5.68,35.6,35.6,0,0,1,6.19-4.56,21.76,21.76,0,0,1,6.84-2.6,10.33,10.33,0,0,1,5.92.28q2.46,1,2.73,5a27.31,27.31,0,0,1-.54,7.58,40.14,40.14,0,0,1-2.26,7.3Q56,86.33,54.48,89.76A75.19,75.19,0,0,1,51,96.57a56.15,56.15,0,0,1-4.19,6.31,28.46,28.46,0,0,1-4.92,5.05,2.35,2.35,0,0,0-1.06,1.82,2.52,2.52,0,0,0,.6,1.69,2.77,2.77,0,0,0,1.59.91,2.66,2.66,0,0,0,2.06-.49,42,42,0,0,0,4.26-6c1.24-2.11,2.48-4.23,3.72-6.39Q56.55,93.06,59.73,86a56.28,56.28,0,0,0,4.39-14.45,21,21,0,0,0,.13-6.24,8.72,8.72,0,0,0-2.79-5.41,8.48,8.48,0,0,0-5.78-2.31,17.47,17.47,0,0,0-6.19.91,21.17,21.17,0,0,0-6.05,2.67A41.86,41.86,0,0,0,38,65.35a48.55,48.55,0,0,0-4.85,5l-4.39,5.19A124.35,124.35,0,0,0,12.4,101.76c-1,2-1.93,4.07-2.86,6.31a61.88,61.88,0,0,0-2.4,7,40.75,40.75,0,0,0-1.33,7.22,24.39,24.39,0,0,0,.34,7,11.48,11.48,0,0,0,3.12,6.17,13.82,13.82,0,0,0,5.32,3.23,20.66,20.66,0,0,0,6.45,1,28.94,28.94,0,0,0,6.51-.7,55.66,55.66,0,0,0,13.23-4.77q6.31-3.22,12.44-6.46c2.56-1.31,5.07-2.64,7.51-4s4.89-2.69,7.38-4c.88-.47,8.62-4.82,9.64-5.48s2-1.26,3-1.82,2.21-1.26,3.72-2.1a4.42,4.42,0,0,0,3.26,1.82,21.2,21.2,0,0,0,4.59.07,25.77,25.77,0,0,0,4.45-.77c1.37-.37,2.28-.61,2.73-.7l-1.07,4.63q-.27,1.13-.6,2.31c-.22.8-.39,1.59-.53,2.39a8.63,8.63,0,0,0-.06,2.38,4.71,4.71,0,0,0,.79,2.18,3.79,3.79,0,0,0,3.33,1.82,12.62,12.62,0,0,0,4.39-.84,29,29,0,0,0,4.45-2.11l3.66-2.1,5.58-2.67,1.2-.42a8.79,8.79,0,0,0,1.53-.7c.16-.09.28-.22.43-.32a1.46,1.46,0,0,0,.36,0,8,8,0,0,0,1.53-.63c.54-.28,1.07-.58,1.6-.91s1-.59,1.33-.77c2-1,3.9-2,5.85-3s3.94-1.78,6-2.53l-2.52,2.67a29.24,29.24,0,0,0-2.8,3.51,18.8,18.8,0,0,0-2.26,4.35,7.57,7.57,0,0,0-.33,4.28,5.07,5.07,0,0,0,3.13,3.29,8.28,8.28,0,0,0,4.52.71,14.53,14.53,0,0,0,4.58-1.34,22.89,22.89,0,0,0,4.19-2.59,42.45,42.45,0,0,0,3.59-3.09l2.93-3.23a8,8,0,0,0,3.45,2.18,13.65,13.65,0,0,0,4.13.63,23,23,0,0,0,4.32-.42,30.26,30.26,0,0,0,4.19-1.12l1.59-.57c.8-.28,1.58-.58,2.33-.91a5,5,0,0,0,1.6-1.09l4.91-2.56q2.86-1.47,5.46-2.87c1.72-.94,3.27-1.73,4.65-2.39a25.41,25.41,0,0,1,3-1.26,18.84,18.84,0,0,0-3.72,2.95,32.77,32.77,0,0,0-3.66,4.28,30.67,30.67,0,0,0-2.72,4.48,8.58,8.58,0,0,0-1.07,3.58,4.7,4.7,0,0,0,2,3.93A6.64,6.64,0,0,0,189,128a12.36,12.36,0,0,0,5.12-1.75q2.46-1.47,4.72-2.88l3.59-2.24a7.5,7.5,0,0,0-.13,3.72,4.05,4.05,0,0,0,2.66,2.73,7.24,7.24,0,0,0,3.79.42,19.92,19.92,0,0,0,4.05-1,29.43,29.43,0,0,0,3.86-1.68c1.24-.65,2.39-1.22,3.46-1.69l4.65-2.17c1.5-.7,3-1.43,4.52-2.17a15.27,15.27,0,0,1,1.59-.71c.71-.28,1.42-.58,2.13-.91a4.74,4.74,0,0,0,1.43-1,100.29,100.29,0,0,0,12.13-7.37c-1.24,2.44-2.32,4.7-3.25,6.81a12.79,12.79,0,0,0-1.13,6.38q.53,3.24,2.85,3.79a10.53,10.53,0,0,0,5.19-.21,40,40,0,0,0,5.72-2l4.45-2,9.44-3.65a24.66,24.66,0,0,1,2.46-.91,2.94,2.94,0,0,0,1-.57,2.46,2.46,0,0,0,.36-.06c1.59-.93,3.19-1.78,4.78-2.53a52.33,52.33,0,0,1,5.72-2.45q2.93-1.05,6-2.32-.79,2.53-1.52,5.55a23.8,23.8,0,0,0-.74,5.61,7.87,7.87,0,0,0,1.07,4.28c.7,1.12,2,1.54,3.85,1.26a22.93,22.93,0,0,0,6.19-2c2-1,4-2,5.91-3q.52-.29,2.4-1.05c1.24-.52,2.46-1.08,3.65-1.69a13.13,13.13,0,0,0,2.16-1.37,1.57,1.57,0,0,0,1-.24l5.26-2.74q2.85-1.47,5.45-2.87c1.72-.94,3.28-1.73,4.65-2.39a25.41,25.41,0,0,1,3-1.26,18.84,18.84,0,0,0-3.72,2.95,32.77,32.77,0,0,0-3.66,4.28,30.67,30.67,0,0,0-2.72,4.48,8.73,8.73,0,0,0-1.07,3.58,4.73,4.73,0,0,0,2,3.93,6.64,6.64,0,0,0,4.25,1.12,12.36,12.36,0,0,0,5.12-1.75q2.46-1.47,4.72-2.88l3.59-2.24a7.62,7.62,0,0,0-.13,3.72,4.07,4.07,0,0,0,2.66,2.73,7.24,7.24,0,0,0,3.79.42,19.77,19.77,0,0,0,4.05-1,29.43,29.43,0,0,0,3.86-1.68c1.24-.65,2.39-1.22,3.46-1.69l4.65-2.17c1.51-.7,9.84-5.07,10.59-5.56C391,107.44,407,92.5,416.79,76.12,423.44,65,428,49.79,424.42,36.85ZM261.83,89.9q2.26-2.88,4.65-5.68c.54-.56,1.18-1.31,1.93-2.25s1.58-1.87,2.46-2.8c-.44.75-.86,1.5-1.26,2.24s-.82,1.45-1.26,2.11A81.87,81.87,0,0,1,257.71,96,52.54,52.54,0,0,1,261.83,89.9ZM152,115.09a10.2,10.2,0,0,1-1.6,2.24l-2,2.11a13.16,13.16,0,0,1-5.65,3.22,15.46,15.46,0,0,1-6.59.28c-1.24-.18-1.79-.77-1.66-1.75a8.22,8.22,0,0,1,1.27-3.16,23.69,23.69,0,0,1,2.45-3.23c.94-1,1.58-1.73,1.93-2.1a23,23,0,0,1,5.39-3.51,19.2,19.2,0,0,1,6.71-1.68,5.87,5.87,0,0,0-1,3.65A12.29,12.29,0,0,0,152,115.09Z" transform="translate(-5.7 -6.31)" style="fill:#c00d0d"/></svg>
