<?xml version="1.0" encoding="iso-8859-1"?>
<!-- Generator: Adobe Illustrator 19.0.0, SVG Export Plug-In . SVG Version: 6.00 Build 0)  -->
<svg version="1.1" id="Capa_1" xmlns="http://www.w3.org/2000/svg" xmlns:xlink="http://www.w3.org/1999/xlink" x="0px" y="0px"
	 viewBox="0 0 412.873 412.873" style="enable-background:new 0 0 412.873 412.873;" xml:space="preserve">
<g>
	<g>
		<path d="M367.814,3.273c-0.512-1.536-2.048-2.56-3.584-3.072c-1.536-0.512-3.072,0-4.608,1.024
			c-118.784,92.16-320.512,76.8-322.56,76.8c-1.536,0-3.072,0.512-4.096,1.536c-1.024,1.024-1.536,2.56-1.536,4.096
			c0,65.536,44.544,123.904,106.496,139.776c0,0.512,0,1.024,0,1.536c2.048,25.088,22.528,45.568,47.616,48.128v79.872
			c-18.432,2.56-32.768,18.432-32.768,37.888v11.776h-5.12c-3.072,0-5.12,2.048-5.12,5.12c0,3.072,2.048,5.12,5.12,5.12h87.04
			c3.072,0,5.12-2.048,5.12-5.12c0-3.072-2.048-5.12-5.12-5.12h-5.12v-11.776c0-19.456-14.336-35.328-33.28-37.888v-79.36
			c26.112-2.56,46.592-25.088,47.104-51.712c53.76-13.824,98.304-45.056,120.832-86.528C385.734,95.945,387.27,50.377,367.814,3.273
			z M218.822,390.857v11.776h-55.808v-11.776c0-15.36,12.288-27.648,27.648-27.648C206.022,362.697,218.822,375.497,218.822,390.857
			z M191.174,263.881c-22.016-0.512-39.936-16.896-42.496-37.888c11.776,2.048,23.552,3.584,36.352,3.584
			c12.8,0,26.112-1.024,39.936-3.584c3.072-0.512,5.632-1.024,8.704-1.536C232.134,246.473,213.702,263.881,191.174,263.881z
			 M355.526,130.249c-23.552,43.52-73.216,75.264-132.608,85.504c-28.16,5.12-54.784,4.608-79.36-1.024
			C86.726,201.417,44.742,149.193,42.182,88.777c33.28,1.536,207.872,6.144,318.464-75.264
			C376.007,55.497,374.47,95.433,355.526,130.249z"/>
	</g>
</g>
<g>
</g>
<g>
</g>
<g>
</g>
<g>
</g>
<g>
</g>
<g>
</g>
<g>
</g>
<g>
</g>
<g>
</g>
<g>
</g>
<g>
</g>
<g>
</g>
<g>
</g>
<g>
</g>
<g>
</g>
</svg>
